<?xml version="1.0" encoding="utf-8"?>
<!-- Generator: Adobe Illustrator 22.0.1, SVG Export Plug-In . SVG Version: 6.00 Build 0)  -->
<svg version="1.1" id="Layer_1" xmlns="http://www.w3.org/2000/svg" xmlns:xlink="http://www.w3.org/1999/xlink" x="0px" y="0px"
	 viewBox="0 0 773 113.1" style="enable-background:new 0 0 773 113.1;" xml:space="preserve">
<style type="text/css">
	.st0{fill:#242F42;}
	.st1{clip-path:url(#SVGID_4_);}
	.st2{fill:#D4AF34;}
	.st3{clip-path:url(#SVGID_8_);}
	.st4{fill:#1569A6;}
	.st5{fill:#193654;}
	.st6{clip-path:url(#SVGID_10_);}
	.st7{fill:#FFFFFF;}
	.st8{fill:url(#SVGID_11_);}
	.st9{fill:url(#SVGID_12_);}
</style>
<path class="st0" d="M560-241.4h-749c-6.6,0-12-5.4-12-12v-89c0-6.6,5.4-12,12-12h749c6.6,0,12,5.4,12,12v89
	C572-246.8,566.6-241.4,560-241.4z"/>
<g>
	<g>
		<defs>
			
				<rect id="SVGID_1_" x="802.5" y="-181" transform="matrix(0.9971 -7.640206e-02 7.640206e-02 0.9971 8.5361 66.1981)" width="133.8" height="205"/>
		</defs>
		<clipPath id="SVGID_2_">
			<use xlink:href="#SVGID_1_"  style="overflow:visible;"/>
		</clipPath>
	</g>
	<g>
		<defs>
			
				<rect id="SVGID_3_" x="802.5" y="-181" transform="matrix(0.9971 -7.640206e-02 7.640206e-02 0.9971 8.5361 66.1981)" width="133.8" height="205"/>
		</defs>
		<clipPath id="SVGID_4_">
			<use xlink:href="#SVGID_3_"  style="overflow:visible;"/>
		</clipPath>
		<g class="st1">
			<g>
				<path class="st2" d="M832.2-92.8c15.1,2.7,31-2.1,43.3-10.7c6.8-4.8,15.6-7.8,23.8-5.7c8.9,2.3,12.6,11.4,13.3,19.7
					c0.7,8.5-2,16.8-9.7,21c-6.8,3.7-15.3,2.4-22.2-0.2c-4.4-1.7-8.2-4.7-12.2-7.2c-4.2-2.7-8.9-4.7-13.7-6.1
					c-7.3-2-14.9-1.3-22.3-1.5c-3.2-0.1-3.2,4.9,0,5c8.9,0.3,17.3-0.3,25.8,3c10.1,3.9,17.4,11.7,28.4,13.7
					c7.5,1.4,15.6,0.2,21.8-4.4c6.9-5.1,9.2-13.6,9.1-21.8c-0.1-8.2-2.8-17.1-9.5-22.2c-6.5-5-14.6-5.5-22.3-3.6
					c-4.6,1.1-8.9,3.4-12.8,6c-5.9,3.9-11.6,7-18.4,8.9c-6.6,1.8-14.3,2.6-21,1.4C830.4-98.2,829-93.4,832.2-92.8L832.2-92.8z"/>
			</g>
		</g>
		<g class="st1">
			<g>
				<path class="st2" d="M906.5-82.7c-15.1-2.7-31,2.1-43.3,10.7c-6.8,4.8-15.6,7.8-23.8,5.7c-8.9-2.3-12.6-11.4-13.3-19.7
					c-0.7-8.5,2-16.8,9.7-21c6.8-3.7,15.3-2.4,22.2,0.2c4.4,1.7,8.2,4.7,12.2,7.2c4.2,2.7,8.9,4.7,13.7,6.1c7.3,2,14.9,1.3,22.3,1.5
					c3.2,0.1,3.2-4.9,0-5c-8.9-0.3-17.3,0.3-25.8-3c-10.1-3.9-17.4-11.7-28.4-13.7c-7.5-1.4-15.6-0.2-21.8,4.4
					c-6.9,5.1-9.2,13.6-9.1,21.8c0.1,8.2,2.8,17.1,9.5,22.2c6.5,5,14.6,5.5,22.3,3.6c4.6-1.1,8.9-3.4,12.8-6
					c5.9-3.9,11.6-7,18.4-8.9c6.6-1.8,14.3-2.6,21-1.4C908.3-77.3,909.6-82.2,906.5-82.7L906.5-82.7z"/>
			</g>
		</g>
		<g class="st1">
			<g>
				<path class="st2" d="M919.5-92.7c2.2,0.1,4.3,0.2,6.5,0.3c3.2,0.1,3.2-4.9,0-5c-2.2-0.1-4.3-0.2-6.5-0.3
					C916.2-97.9,916.3-92.9,919.5-92.7L919.5-92.7z"/>
			</g>
		</g>
		<g class="st1">
			<g>
				<path class="st2" d="M919.1-77.2c2.2,0.1,4.3,0.2,6.5,0.3c3.2,0.1,3.2-4.9,0-5c-2.2-0.1-4.3-0.2-6.5-0.3
					C915.8-82.3,915.8-77.3,919.1-77.2L919.1-77.2z"/>
			</g>
		</g>
		<g class="st1">
			<g>
				<path class="st2" d="M813.3-94c2.2,0.1,4.3,0.2,6.5,0.3c3.2,0.1,3.2-4.9,0-5c-2.2-0.1-4.3-0.2-6.5-0.3
					C810.1-99.2,810.1-94.2,813.3-94L813.3-94z"/>
			</g>
		</g>
		<g class="st1">
			<g>
				<path class="st2" d="M812.9-78.5c2.2,0.1,4.3,0.2,6.5,0.3c3.2,0.1,3.2-4.9,0-5c-2.2-0.1-4.3-0.2-6.5-0.3
					C809.6-83.6,809.7-78.6,812.9-78.5L812.9-78.5z"/>
			</g>
		</g>
	</g>
	<g>
		<defs>
			
				<rect id="SVGID_5_" x="802.5" y="-181" transform="matrix(0.9971 -7.640206e-02 7.640206e-02 0.9971 8.5361 66.1981)" width="133.8" height="205"/>
		</defs>
		<clipPath id="SVGID_6_">
			<use xlink:href="#SVGID_5_"  style="overflow:visible;"/>
		</clipPath>
	</g>
</g>
<g>
	<defs>
		
			<rect id="SVGID_7_" x="-177.7" y="-236.6" transform="matrix(0.9971 -7.640206e-02 7.640206e-02 0.9971 9.9188 -8.8535)" width="133.8" height="205"/>
	</defs>
	<clipPath id="SVGID_8_">
		<use xlink:href="#SVGID_7_"  style="overflow:visible;"/>
	</clipPath>
	<g class="st3">
		<g>
			<path class="st4" d="M-148-148.4c15.1,2.7,31-2.1,43.3-10.7c6.8-4.8,15.6-7.8,23.8-5.7c8.9,2.3,12.6,11.4,13.3,19.7
				c0.7,8.5-2,16.8-9.7,21c-6.8,3.7-15.3,2.4-22.2-0.2c-4.4-1.7-8.2-4.7-12.2-7.2c-4.2-2.7-8.9-4.7-13.7-6.1
				c-7.3-2-14.9-1.3-22.3-1.5c-3.2-0.1-3.2,4.9,0,5c8.9,0.3,17.3-0.3,25.8,3c10.1,3.9,17.4,11.7,28.4,13.7
				c7.5,1.4,15.6,0.2,21.8-4.4c6.9-5.1,9.2-13.6,9.1-21.8c-0.1-8.2-2.8-17.1-9.5-22.2c-6.5-5-14.6-5.5-22.3-3.6
				c-4.6,1.1-8.9,3.4-12.8,6c-5.9,3.9-11.6,7-18.4,8.9c-6.6,1.8-14.3,2.6-21,1.4C-149.8-153.8-151.2-149-148-148.4L-148-148.4z"/>
		</g>
	</g>
	<g class="st3">
		<g>
			<path class="st4" d="M-73.7-138.3c-15.1-2.7-31,2.1-43.3,10.7c-6.8,4.8-15.6,7.8-23.8,5.7c-8.9-2.3-12.6-11.4-13.3-19.7
				c-0.7-8.5,2-16.8,9.7-21c6.8-3.7,15.3-2.4,22.2,0.2c4.4,1.7,8.2,4.7,12.2,7.2c4.2,2.7,8.9,4.7,13.7,6.1c7.3,2,14.9,1.3,22.3,1.5
				c3.2,0.1,3.2-4.9,0-5c-8.9-0.3-17.3,0.3-25.8-3c-10.1-3.9-17.4-11.7-28.4-13.7c-7.5-1.4-15.6-0.2-21.8,4.4
				c-6.9,5.1-9.2,13.6-9.1,21.8c0.1,8.2,2.8,17.1,9.5,22.2c6.5,5,14.6,5.5,22.3,3.6c4.6-1.1,8.9-3.4,12.8-6c5.9-3.9,11.6-7,18.4-8.9
				c6.6-1.8,14.3-2.6,21-1.4C-71.9-132.9-70.6-137.8-73.7-138.3L-73.7-138.3z"/>
		</g>
	</g>
	<g class="st3">
		<g>
			<path class="st4" d="M-60.7-148.3c2.2,0.1,4.3,0.2,6.5,0.3c3.2,0.1,3.2-4.9,0-5c-2.2-0.1-4.3-0.2-6.5-0.3
				C-63.9-153.5-63.9-148.5-60.7-148.3L-60.7-148.3z"/>
		</g>
	</g>
	<g class="st3">
		<g>
			<path class="st4" d="M-61.1-132.8c2.2,0.1,4.3,0.2,6.5,0.3c3.2,0.1,3.2-4.9,0-5c-2.2-0.1-4.3-0.2-6.5-0.3
				C-64.4-137.9-64.4-132.9-61.1-132.8L-61.1-132.8z"/>
		</g>
	</g>
	<g class="st3">
		<g>
			<path class="st4" d="M-166.9-149.6c2.2,0.1,4.3,0.2,6.5,0.3c3.2,0.1,3.2-4.9,0-5c-2.2-0.1-4.3-0.2-6.5-0.3
				C-170.1-154.8-170.1-149.8-166.9-149.6L-166.9-149.6z"/>
		</g>
	</g>
	<g class="st3">
		<g>
			<path class="st4" d="M-167.3-134.1c2.2,0.1,4.3,0.2,6.5,0.3c3.2,0.1,3.2-4.9,0-5c-2.2-0.1-4.3-0.2-6.5-0.3
				C-170.6-139.2-170.5-134.2-167.3-134.1L-167.3-134.1z"/>
		</g>
	</g>
</g>
<g>
	<text transform="matrix(1 0 0 1 638.1084 -237.3241)" style="fill:#18194A; font-family:'StereoGothicW01-700'; font-size:36px;">ALFA</text>
</g>
<text transform="matrix(1 0 0 1 -221.1984 92.1325)" style="fill:#5B0F15; font-family:'Bitsumishi'; font-size:60px;">ALFA</text>
<g>
	<path class="st5" d="M761,113.1H12c-6.6,0-12-5.4-12-12v-89c0-6.6,5.4-12,12-12h749c6.6,0,12,5.4,12,12v89
		C773,107.7,767.6,113.1,761,113.1z"/>
	<g>
		<g>
			<defs>
				
					<rect id="SVGID_9_" x="245.2" y="-37" transform="matrix(0.9971 -7.640206e-02 7.640206e-02 0.9971 -4.0952 24.0351)" width="133.8" height="205"/>
			</defs>
			<clipPath id="SVGID_10_">
				<use xlink:href="#SVGID_9_"  style="overflow:visible;"/>
			</clipPath>
			<g class="st6">
				<g>
					<path class="st7" d="M274.8,51.2c15.1,2.7,31-2.1,43.3-10.7c6.8-4.8,15.6-7.8,23.8-5.7c8.9,2.3,12.6,11.4,13.3,19.7
						c0.7,8.5-2,16.8-9.7,21c-6.8,3.7-15.3,2.4-22.2-0.2c-4.4-1.7-8.2-4.7-12.2-7.2c-4.2-2.7-8.9-4.7-13.7-6.1
						c-7.3-2-14.9-1.3-22.3-1.5c-3.2-0.1-3.2,4.9,0,5c8.9,0.3,17.3-0.3,25.8,3c10.1,3.9,17.4,11.7,28.4,13.7
						c7.5,1.4,15.6,0.2,21.8-4.4c6.9-5.1,9.2-13.6,9.1-21.8c-0.1-8.2-2.8-17.1-9.5-22.2c-6.5-5-14.6-5.5-22.3-3.6
						c-4.6,1.1-8.9,3.4-12.8,6c-5.9,3.9-11.6,7-18.4,8.9c-6.6,1.8-14.3,2.6-21,1.4C273,45.8,271.7,50.6,274.8,51.2L274.8,51.2z"/>
				</g>
			</g>
			<g class="st6">
				<g>
					<path class="st7" d="M349.1,61.3c-15.1-2.7-31,2.1-43.3,10.7c-6.8,4.8-15.6,7.8-23.8,5.7c-8.9-2.3-12.6-11.4-13.3-19.7
						c-0.7-8.5,2-16.8,9.7-21c6.8-3.7,15.3-2.4,22.2,0.2c4.4,1.7,8.2,4.7,12.2,7.2c4.2,2.7,8.9,4.7,13.7,6.1
						c7.3,2,14.9,1.3,22.3,1.5c3.2,0.1,3.2-4.9,0-5c-8.9-0.3-17.3,0.3-25.8-3c-10.1-3.9-17.4-11.7-28.4-13.7
						c-7.5-1.4-15.6-0.2-21.8,4.4c-6.9,5.1-9.2,13.6-9.1,21.8c0.1,8.2,2.8,17.1,9.5,22.2c6.5,5,14.6,5.5,22.3,3.6
						c4.6-1.1,8.9-3.4,12.8-6c5.9-3.9,11.6-7,18.4-8.9c6.6-1.8,14.3-2.6,21-1.4C350.9,66.7,352.3,61.8,349.1,61.3L349.1,61.3z"/>
				</g>
			</g>
			<g class="st6">
				<g>
					<path class="st7" d="M362.1,51.3c2.2,0.1,4.3,0.2,6.5,0.3c3.2,0.1,3.2-4.9,0-5c-2.2-0.1-4.3-0.2-6.5-0.3
						C358.9,46.1,358.9,51.1,362.1,51.3L362.1,51.3z"/>
				</g>
			</g>
			<g class="st6">
				<g>
					<path class="st7" d="M361.7,66.8c2.2,0.1,4.3,0.2,6.5,0.3c3.2,0.1,3.2-4.9,0-5c-2.2-0.1-4.3-0.2-6.5-0.3
						C358.5,61.7,358.5,66.7,361.7,66.8L361.7,66.8z"/>
				</g>
			</g>
			<g class="st6">
				<g>
					<path class="st7" d="M255.9,50c2.2,0.1,4.3,0.2,6.5,0.3c3.2,0.1,3.2-4.9,0-5c-2.2-0.1-4.3-0.2-6.5-0.3
						C252.7,44.8,252.7,49.8,255.9,50L255.9,50z"/>
				</g>
			</g>
			<g class="st6">
				<g>
					<path class="st7" d="M255.5,65.5c2.2,0.1,4.3,0.2,6.5,0.3c3.2,0.1,3.2-4.9,0-5c-2.2-0.1-4.3-0.2-6.5-0.3
						C252.3,60.4,252.3,65.4,255.5,65.5L255.5,65.5z"/>
				</g>
			</g>
		</g>
		<g>
			<g>
				<g>
					<path class="st7" d="M81,63.8H55.5l-3.3,4.3h-6.8l20-25.2h5.9l20,25.2h-6.8L81,63.8z M59.1,59.3h18.3l-9.1-11.6L59.1,59.3z"/>
					<path class="st7" d="M101.2,63.1h29.9v5H95.7V42.9h5.5V63.1z"/>
					<path class="st7" d="M136.3,42.9h36.2v5h-30.6v5.4h27v5h-27v9.7h-5.5V42.9z"/>
					<path class="st7" d="M207.8,63.8h-25.5l-3.3,4.3h-6.8l20-25.2h5.9l20,25.2h-6.8L207.8,63.8z M186,59.3h18.3l-9.1-11.6L186,59.3
						z"/>
				</g>
			</g>
			<g>
				<g>
					<path class="st7" d="M416.4,66.1h29.9v5h-35.5V45.9h5.5V66.1z"/>
					<path class="st7" d="M466.1,71.5c-2.9,0-5.4-0.3-7.5-1s-3.8-1.6-5.1-2.8c-1.3-1.2-2.3-2.5-2.9-4.1c-0.6-1.6-0.9-3.3-0.9-5.1
						c0-1.8,0.3-3.5,0.9-5.1c0.6-1.6,1.6-2.9,2.9-4.1c1.3-1.2,3-2.1,5.1-2.8c2.1-0.7,4.6-1,7.5-1h10.7c2.9,0,5.4,0.3,7.5,1
						c2.1,0.7,3.8,1.6,5.1,2.8c1.3,1.2,2.3,2.5,2.9,4.1c0.6,1.6,0.9,3.3,0.9,5.1c0,1.8-0.3,3.5-0.9,5.1c-0.6,1.6-1.6,2.9-2.9,4.1
						c-1.3,1.2-3,2.1-5.1,2.8s-4.6,1-7.5,1H466.1z M476.7,66.5c2,0,3.7-0.2,5-0.6c1.3-0.4,2.4-1,3.2-1.7c0.8-0.7,1.4-1.6,1.7-2.5
						c0.3-1,0.5-2,0.5-3.1c0-1.1-0.2-2.1-0.5-3.1c-0.3-1-0.9-1.8-1.7-2.5c-0.8-0.7-1.9-1.3-3.2-1.7c-1.3-0.4-3-0.6-5-0.6h-10.6
						c-2,0-3.7,0.2-5.1,0.6c-1.3,0.4-2.4,1-3.2,1.7c-0.8,0.7-1.4,1.6-1.7,2.5s-0.5,2-0.5,3.1c0,1.1,0.2,2.1,0.5,3.1s0.9,1.8,1.7,2.5
						c0.8,0.7,1.9,1.3,3.2,1.7c1.3,0.4,3,0.6,5,0.6H476.7z"/>
					<path class="st7" d="M519.4,56.3h18.1v14.9h-23.4c-2.9,0-5.3-0.3-7.3-1c-2-0.7-3.6-1.6-4.9-2.7c-1.3-1.1-2.2-2.5-2.8-4
						c-0.6-1.5-0.9-3.2-0.9-4.9s0.3-3.4,0.9-4.9c0.6-1.5,1.5-2.9,2.8-4c1.3-1.1,2.9-2,4.9-2.7c2-0.7,4.4-1,7.3-1h21.5v5h-21.4
						c-1.9,0-3.6,0.2-4.8,0.6c-1.3,0.4-2.3,0.9-3.1,1.6c-0.8,0.7-1.3,1.5-1.6,2.4c-0.3,0.9-0.5,1.9-0.5,2.9c0,1.1,0.2,2,0.5,3
						c0.3,0.9,0.9,1.7,1.6,2.4c0.8,0.7,1.8,1.2,3.1,1.6c1.3,0.4,2.9,0.6,4.8,0.6h18v-5.3h-12.7V56.3z"/>
					<path class="st7" d="M545.1,45.9h5.5v25.2h-5.5V45.9z"/>
					<path class="st7" d="M558.8,66.1h27.4c0.8,0,1.5-0.1,2-0.2s0.9-0.3,1.2-0.6c0.3-0.2,0.5-0.5,0.6-0.8c0.1-0.3,0.1-0.7,0.1-1
						c0-0.4,0-0.7-0.1-1c-0.1-0.3-0.3-0.6-0.6-0.8c-0.3-0.2-0.7-0.4-1.2-0.6c-0.5-0.1-1.2-0.2-2-0.2H567c-1.7,0-3.2-0.2-4.4-0.6
						c-1.2-0.4-2.2-0.9-3-1.6c-0.8-0.7-1.3-1.5-1.7-2.4s-0.5-1.9-0.5-2.9c0-1,0.2-2,0.5-2.9c0.3-0.9,0.9-1.7,1.7-2.4
						c0.8-0.7,1.8-1.2,3-1.6c1.2-0.4,2.7-0.6,4.4-0.6h27.5v5h-27.4c-0.8,0-1.5,0.1-2,0.2s-0.9,0.3-1.2,0.6c-0.3,0.2-0.5,0.5-0.6,0.8
						c-0.1,0.3-0.1,0.7-0.1,1c0,0.4,0,0.7,0.1,1c0.1,0.3,0.3,0.6,0.6,0.8c0.3,0.2,0.7,0.4,1.2,0.6s1.2,0.2,2,0.2h19.3
						c1.7,0,3.2,0.2,4.4,0.6c1.2,0.4,2.2,0.9,3,1.6c0.8,0.7,1.3,1.5,1.7,2.4c0.3,0.9,0.5,1.9,0.5,2.9c0,1.1-0.2,2-0.5,2.9
						c-0.3,0.9-0.9,1.7-1.7,2.4c-0.8,0.7-1.8,1.2-3,1.6c-1.2,0.4-2.7,0.6-4.4,0.6h-27.5V66.1z"/>
					<path class="st7" d="M599.3,45.9h40.8v5h-17.6v20.2h-5.5V51h-17.6V45.9z"/>
					<path class="st7" d="M645.3,45.9h5.5v25.2h-5.5V45.9z"/>
					<path class="st7" d="M663.5,58.5c0,1.1,0.2,2,0.5,3c0.3,0.9,0.9,1.7,1.6,2.4c0.8,0.7,1.8,1.2,3.1,1.6c1.3,0.4,2.9,0.6,4.8,0.6
						h21.4v5h-21.5c-2.9,0-5.3-0.3-7.3-1c-2-0.7-3.6-1.6-4.9-2.7c-1.3-1.1-2.2-2.5-2.8-4c-0.6-1.5-0.9-3.2-0.9-4.9s0.3-3.4,0.9-4.9
						c0.6-1.5,1.5-2.9,2.8-4c1.3-1.1,2.9-2,4.9-2.7c2-0.7,4.4-1,7.3-1h21.5v5h-21.4c-1.9,0-3.6,0.2-4.8,0.6
						c-1.3,0.4-2.3,0.9-3.1,1.6c-0.8,0.7-1.3,1.5-1.6,2.4C663.7,56.5,663.5,57.5,663.5,58.5z"/>
					<path class="st7" d="M701.6,66.1H729c0.8,0,1.5-0.1,2-0.2s0.9-0.3,1.2-0.6c0.3-0.2,0.5-0.5,0.6-0.8c0.1-0.3,0.1-0.7,0.1-1
						c0-0.4,0-0.7-0.1-1c-0.1-0.3-0.3-0.6-0.6-0.8c-0.3-0.2-0.7-0.4-1.2-0.6c-0.5-0.1-1.2-0.2-2-0.2h-19.3c-1.7,0-3.2-0.2-4.4-0.6
						c-1.2-0.4-2.2-0.9-3-1.6c-0.8-0.7-1.3-1.5-1.7-2.4s-0.5-1.9-0.5-2.9c0-1,0.2-2,0.5-2.9c0.3-0.9,0.9-1.7,1.7-2.4
						c0.8-0.7,1.8-1.2,3-1.6c1.2-0.4,2.7-0.6,4.4-0.6h27.5v5h-27.4c-0.8,0-1.5,0.1-2,0.2s-0.9,0.3-1.2,0.6c-0.3,0.2-0.5,0.5-0.6,0.8
						c-0.1,0.3-0.1,0.7-0.1,1c0,0.4,0,0.7,0.1,1c0.1,0.3,0.3,0.6,0.6,0.8c0.3,0.2,0.7,0.4,1.2,0.6s1.2,0.2,2,0.2h19.3
						c1.7,0,3.2,0.2,4.4,0.6c1.2,0.4,2.2,0.9,3,1.6c0.8,0.7,1.3,1.5,1.7,2.4c0.3,0.9,0.5,1.9,0.5,2.9c0,1.1-0.2,2-0.5,2.9
						c-0.3,0.9-0.9,1.7-1.7,2.4c-0.8,0.7-1.8,1.2-3,1.6c-1.2,0.4-2.7,0.6-4.4,0.6h-27.5V66.1z"/>
				</g>
			</g>
		</g>
	</g>
</g>
<g>
	<linearGradient id="SVGID_11_" gradientUnits="userSpaceOnUse" x1="583.6031" y1="-318.6365" x2="721.1592" y2="-318.6365">
		<stop  offset="0" style="stop-color:#C7982E"/>
		<stop  offset="0.1231" style="stop-color:#B47F2B"/>
		<stop  offset="0.2623" style="stop-color:#F8DF7C"/>
		<stop  offset="0.3672" style="stop-color:#F8DF7C"/>
		<stop  offset="0.4901" style="stop-color:#DCB759"/>
		<stop  offset="0.6129" style="stop-color:#C99D41"/>
		<stop  offset="0.7346" style="stop-color:#BD8C33"/>
		<stop  offset="0.8542" style="stop-color:#B6822D"/>
		<stop  offset="0.9689" style="stop-color:#B47F2B"/>
	</linearGradient>
	<path class="st8" d="M715.8-297.9H589c-3,0-5.4-2.4-5.4-5.4V-334c0-3,2.4-5.4,5.4-5.4h126.8c3,0,5.4,2.4,5.4,5.4v30.8
		C721.2-300.3,718.8-297.9,715.8-297.9z"/>
	<linearGradient id="SVGID_12_" gradientUnits="userSpaceOnUse" x1="652.3811" y1="-339.3997" x2="652.3811" y2="-297.8733">
		<stop  offset="0" style="stop-color:#C7982E"/>
		<stop  offset="0.1231" style="stop-color:#B47F2B"/>
		<stop  offset="0.2623" style="stop-color:#F8DF7C"/>
		<stop  offset="0.3672" style="stop-color:#F8DF7C"/>
		<stop  offset="0.4901" style="stop-color:#DCB759"/>
		<stop  offset="0.6129" style="stop-color:#C99D41"/>
		<stop  offset="0.7346" style="stop-color:#BD8C33"/>
		<stop  offset="0.8542" style="stop-color:#B6822D"/>
		<stop  offset="0.9689" style="stop-color:#B47F2B"/>
	</linearGradient>
	<path class="st9" d="M715.8-338.4c2.4,0,4.4,2,4.4,4.4v30.8c0,2.4-2,4.4-4.4,4.4H589c-2.4,0-4.4-2-4.4-4.4V-334
		c0-2.4,2-4.4,4.4-4.4H715.8 M715.8-339.4H589c-3,0-5.4,2.4-5.4,5.4v30.8c0,3,2.4,5.4,5.4,5.4h126.8c3,0,5.4-2.4,5.4-5.4V-334
		C721.2-337,718.8-339.4,715.8-339.4L715.8-339.4z"/>
</g>
</svg>
